<svg xmlns="http://www.w3.org/2000/svg" viewBox="0 0 100 100" fill="none">
  <rect width="100" height="100" rx="22" fill="#050505"/>
  <path
    d="M 50 15 L 85 35 L 50 55 L 15 35 Z"
    stroke="url(#bc-blue)"
    stroke-width="4"
    stroke-linejoin="round"
  />
  <path
    d="M 15 35 L 50 55 L 50 95 L 15 75 Z"
    stroke="url(#bc-blue)"
    stroke-width="4"
    stroke-linejoin="round"
  />
  <path
    d="M 85 35 L 50 55 L 50 95 L 85 75 Z"
    stroke="url(#bc-emerald)"
    stroke-width="4"
    stroke-linejoin="round"
  />
  <path
    d="M 50 55 L 50 25 M 50 55 L 25 70 M 50 55 L 75 70"
    stroke="url(#bc-white)"
    stroke-width="2"
    stroke-linecap="round"
  />
  <circle cx="50" cy="55" r="4" fill="#ffffff"/>
  <circle cx="50" cy="55" r="35" stroke="rgba(255,255,255,0.12)" stroke-width="1" stroke-dasharray="4 8" fill="none"/>
  <circle cx="85" cy="55" r="3" fill="#34d399"/>
  <circle cx="15" cy="55" r="3" fill="#4facfe"/>
  <circle cx="50" cy="20" r="3" fill="#ffffff"/>
  <defs>
    <linearGradient id="bc-blue" x1="0%" y1="0%" x2="100%" y2="100%">
      <stop offset="0%" stop-color="#4facfe"/>
      <stop offset="100%" stop-color="#00f2fe"/>
    </linearGradient>
    <linearGradient id="bc-emerald" x1="0%" y1="0%" x2="100%" y2="100%">
      <stop offset="0%" stop-color="#34d399"/>
      <stop offset="100%" stop-color="#10b981"/>
    </linearGradient>
    <linearGradient id="bc-white" x1="0%" y1="0%" x2="100%" y2="100%">
      <stop offset="0%" stop-color="#ffffff" stop-opacity="0.85"/>
      <stop offset="100%" stop-color="#ffffff" stop-opacity="0"/>
    </linearGradient>
  </defs>
</svg>
